<svg width="147" height="30" viewBox="0 0 147 30" fill="none" xmlns="http://www.w3.org/2000/svg">
<path d="M41 21.8184C41 22.1801 40.856 22.5269 40.5997 22.7826C40.3434 23.0384 39.9958 23.182 39.6333 23.182H1.36667C1.0042 23.182 0.656587 23.0384 0.400287 22.7826C0.143988 22.5269 0 22.1801 0 21.8184C0 21.4568 0.143988 21.1099 0.400287 20.8542C0.656587 20.5985 1.0042 20.4548 1.36667 20.4548H8.27688C8.22659 20.002 8.20092 19.5468 8.2 19.0912C8.2 15.8364 9.49589 12.7149 11.8026 10.4134C14.1093 8.11184 17.2378 6.81886 20.5 6.81886C23.7622 6.81886 26.8907 8.11184 29.1974 10.4134C31.5041 12.7149 32.8 15.8364 32.8 19.0912C32.7991 19.5468 32.7734 20.002 32.7231 20.4548H39.6333C39.9958 20.4548 40.3434 20.5985 40.5997 20.8542C40.856 21.1099 41 21.4568 41 21.8184ZM34.1667 27.2728H6.83333C6.47087 27.2728 6.12325 27.4165 5.86695 27.6722C5.61065 27.9279 5.46667 28.2748 5.46667 28.6364C5.46667 28.9981 5.61065 29.3449 5.86695 29.6006C6.12325 29.8563 6.47087 30 6.83333 30H34.1667C34.5291 30 34.8768 29.8563 35.133 29.6006C35.3893 29.3449 35.5333 28.9981 35.5333 28.6364C35.5333 28.2748 35.3893 27.9279 35.133 27.6722C34.8768 27.4165 34.5291 27.2728 34.1667 27.2728ZM12.4435 4.70187C12.5238 4.86214 12.635 5.00506 12.7707 5.12246C12.9063 5.23986 13.0638 5.32945 13.2342 5.38611C13.4046 5.44278 13.5845 5.4654 13.7636 5.4527C13.9427 5.44 14.1176 5.39222 14.2783 5.31208C14.4389 5.23195 14.5821 5.12103 14.6998 4.98567C14.8174 4.8503 14.9072 4.69314 14.964 4.52315C15.0208 4.35316 15.0435 4.17367 15.0308 3.99494C15.018 3.8162 14.9701 3.64172 14.8898 3.48145L13.5232 0.754261C13.361 0.430586 13.0765 0.184458 12.7325 0.0700213C12.3884 -0.0444151 12.0128 -0.0177856 11.6884 0.144052C11.364 0.30589 11.1173 0.589679 11.0026 0.932988C10.8879 1.2763 10.9146 1.65101 11.0768 1.97468L12.4435 4.70187ZM2.12175 12.1301L4.85508 13.4937C5.17926 13.6555 5.5546 13.6822 5.89852 13.5679C6.24244 13.4537 6.52678 13.2078 6.68898 12.8843C6.85118 12.5609 6.87796 12.1864 6.76343 11.8432C6.64889 11.5001 6.40243 11.2164 6.07825 11.0545L3.34492 9.69093C3.1844 9.6108 3.00964 9.56299 2.8306 9.55025C2.65157 9.53751 2.47178 9.56007 2.30148 9.61665C2.13119 9.67324 1.97373 9.76273 1.83811 9.88003C1.70248 9.99733 1.59134 10.1401 1.51102 10.3003C1.43071 10.4604 1.38279 10.6348 1.37002 10.8134C1.35725 10.9921 1.37986 11.1715 1.43657 11.3414C1.49328 11.5113 1.58298 11.6684 1.70055 11.8037C1.81811 11.939 1.96123 12.0499 2.12175 12.1301ZM35.5333 13.6368C35.745 13.6369 35.9538 13.5879 36.1432 13.4937L38.8765 12.1301C39.0371 12.0499 39.1802 11.939 39.2977 11.8037C39.4153 11.6684 39.505 11.5113 39.5617 11.3414C39.6184 11.1715 39.641 10.9921 39.6283 10.8134C39.6155 10.6348 39.5676 10.4604 39.4873 10.3003C39.407 10.1401 39.2958 9.99733 39.1602 9.88003C39.0246 9.76273 38.8671 9.67324 38.6968 9.61665C38.5265 9.56007 38.3467 9.53751 38.1677 9.55025C37.9887 9.56299 37.8139 9.6108 37.6534 9.69093L34.92 11.0545C34.645 11.1922 34.4246 11.4185 34.2945 11.6968C34.1645 11.975 34.1323 12.2889 34.2032 12.5877C34.2742 12.8864 34.4441 13.1525 34.6855 13.3429C34.9269 13.5333 35.2256 13.6369 35.5333 13.6368ZM26.7218 5.31208C26.8824 5.39233 27.0572 5.44021 27.2364 5.45297C27.4156 5.46573 27.5955 5.44313 27.7659 5.38646C27.9363 5.32978 28.0938 5.24015 28.2295 5.12268C28.3652 5.00522 28.4763 4.86222 28.5565 4.70187L29.9232 1.97468C30.0854 1.65101 30.1121 1.2763 29.9974 0.932988C29.8827 0.589679 29.636 0.30589 29.3116 0.144052C28.9872 -0.0177856 28.6116 -0.0444151 28.2675 0.0700213C27.9235 0.184458 27.639 0.430586 27.4768 0.754261L26.1102 3.48145C26.0297 3.6417 25.9818 3.81619 25.969 3.99496C25.9562 4.17372 25.9788 4.35324 26.0356 4.52326C26.0924 4.69328 26.1823 4.85046 26.3 4.98582C26.4177 5.12117 26.561 5.23204 26.7218 5.31208Z" fill="#152532"/>
<path d="M56.962 10.5V12.606H48.808L49.888 11.526V24H47.512V10.5H56.962ZM61.0323 24.252C59.7963 24.252 58.7103 24.03 57.7743 23.586C56.8503 23.13 56.1243 22.5 55.5963 21.696C55.0803 20.892 54.8223 19.962 54.8223 18.906C54.8223 17.838 55.0803 16.908 55.5963 16.116C56.1243 15.312 56.8503 14.688 57.7743 14.244C58.7103 13.788 59.7963 13.56 61.0323 13.56C62.2683 13.56 63.3483 13.788 64.2723 14.244C65.2083 14.688 65.9343 15.312 66.4503 16.116C66.9783 16.908 67.2423 17.838 67.2423 18.906C67.2423 19.962 66.9783 20.892 66.4503 21.696C65.9343 22.5 65.2083 23.13 64.2723 23.586C63.3483 24.03 62.2683 24.252 61.0323 24.252ZM61.0323 22.416C61.8243 22.416 62.5023 22.272 63.0663 21.984C63.6423 21.696 64.0863 21.294 64.3983 20.778C64.7103 20.25 64.8663 19.626 64.8663 18.906C64.8663 18.186 64.7103 17.568 64.3983 17.052C64.0863 16.524 63.6423 16.116 63.0663 15.828C62.5023 15.54 61.8243 15.396 61.0323 15.396C60.2523 15.396 59.5743 15.54 58.9983 15.828C58.4223 16.116 57.9783 16.524 57.6663 17.052C57.3543 17.568 57.1983 18.186 57.1983 18.906C57.1983 19.626 57.3543 20.25 57.6663 20.778C57.9783 21.294 58.4223 21.696 58.9983 21.984C59.5743 22.272 60.2523 22.416 61.0323 22.416ZM69.1443 13.812H71.4843V17.358L71.3763 17.718V19.77L71.4843 20.4V26.97H69.1443V13.812ZM70.5843 18.906C70.8123 17.826 71.1903 16.89 71.7183 16.098C72.2463 15.294 72.8943 14.67 73.6623 14.226C74.4423 13.782 75.3063 13.56 76.2543 13.56C77.2503 13.56 78.1323 13.788 78.9003 14.244C79.6683 14.688 80.2683 15.312 80.7003 16.116C81.1323 16.908 81.3483 17.838 81.3483 18.906C81.3483 19.962 81.1323 20.892 80.7003 21.696C80.2683 22.5 79.6683 23.13 78.9003 23.586C78.1323 24.03 77.2503 24.252 76.2543 24.252C75.3063 24.252 74.4483 24.03 73.6803 23.586C72.9123 23.142 72.2583 22.518 71.7183 21.714C71.1903 20.91 70.8123 19.974 70.5843 18.906ZM78.9723 18.906C78.9723 18.222 78.8283 17.622 78.5403 17.106C78.2643 16.578 77.8803 16.17 77.3883 15.882C76.8963 15.582 76.3323 15.432 75.6963 15.432C75.0603 15.432 74.4603 15.582 73.8963 15.882C73.3443 16.17 72.8583 16.578 72.4383 17.106C72.0183 17.622 71.6763 18.222 71.4123 18.906C71.6763 19.59 72.0183 20.196 72.4383 20.724C72.8583 21.24 73.3443 21.648 73.8963 21.948C74.4603 22.236 75.0603 22.38 75.6963 22.38C76.3323 22.38 76.8963 22.236 77.3883 21.948C77.8803 21.648 78.2643 21.24 78.5403 20.724C78.8283 20.196 78.9723 19.59 78.9723 18.906ZM83.2947 24V13.812H85.5987V22.83L84.8967 22.668L91.8627 13.812H94.8867V24H92.5827V14.856L93.3027 15.036L86.2467 24H83.2947ZM102.127 24.252C101.047 24.252 100.099 24.108 99.2828 23.82C98.4788 23.532 97.8428 23.118 97.3748 22.578C96.9188 22.038 96.6668 21.396 96.6188 20.652H98.8868C98.9828 21.24 99.3068 21.69 99.8588 22.002C100.423 22.302 101.179 22.452 102.127 22.452C103.039 22.452 103.753 22.332 104.269 22.092C104.785 21.84 105.043 21.456 105.043 20.94C105.043 20.52 104.827 20.208 104.395 20.004C103.975 19.8 103.303 19.698 102.379 19.698H100.363V18.078H102.325C103.153 18.078 103.765 17.952 104.161 17.7C104.569 17.448 104.773 17.136 104.773 16.764C104.773 16.308 104.533 15.96 104.053 15.72C103.573 15.48 102.943 15.36 102.163 15.36C101.299 15.36 100.597 15.498 100.057 15.774C99.5168 16.05 99.1988 16.464 99.1028 17.016H96.8348C96.8948 16.368 97.1408 15.786 97.5728 15.27C98.0168 14.742 98.6348 14.328 99.4268 14.028C100.219 13.716 101.161 13.56 102.253 13.56C103.249 13.56 104.113 13.686 104.845 13.938C105.577 14.19 106.141 14.538 106.537 14.982C106.945 15.414 107.149 15.912 107.149 16.476C107.149 16.932 107.005 17.352 106.717 17.736C106.441 18.12 106.003 18.426 105.403 18.654C104.815 18.882 104.053 18.996 103.117 18.996V18.69C104.485 18.642 105.547 18.828 106.303 19.248C107.059 19.656 107.437 20.268 107.437 21.084C107.437 21.696 107.227 22.242 106.807 22.722C106.399 23.202 105.799 23.58 105.007 23.856C104.215 24.12 103.255 24.252 102.127 24.252ZM115.015 24.252C113.779 24.252 112.693 24.03 111.757 23.586C110.833 23.13 110.107 22.5 109.579 21.696C109.063 20.892 108.805 19.962 108.805 18.906C108.805 17.838 109.063 16.908 109.579 16.116C110.107 15.312 110.833 14.688 111.757 14.244C112.693 13.788 113.779 13.56 115.015 13.56C116.251 13.56 117.331 13.788 118.255 14.244C119.191 14.688 119.917 15.312 120.433 16.116C120.961 16.908 121.225 17.838 121.225 18.906C121.225 19.962 120.961 20.892 120.433 21.696C119.917 22.5 119.191 23.13 118.255 23.586C117.331 24.03 116.251 24.252 115.015 24.252ZM115.015 22.416C115.807 22.416 116.485 22.272 117.049 21.984C117.625 21.696 118.069 21.294 118.381 20.778C118.693 20.25 118.849 19.626 118.849 18.906C118.849 18.186 118.693 17.568 118.381 17.052C118.069 16.524 117.625 16.116 117.049 15.828C116.485 15.54 115.807 15.396 115.015 15.396C114.235 15.396 113.557 15.54 112.981 15.828C112.405 16.116 111.961 16.524 111.649 17.052C111.337 17.568 111.181 18.186 111.181 18.906C111.181 19.626 111.337 20.25 111.649 20.778C111.961 21.294 112.405 21.696 112.981 21.984C113.557 22.272 114.235 22.416 115.015 22.416ZM123.127 13.812H125.449V24H123.127V13.812ZM131.785 13.812H134.107V24H131.785V13.812ZM124.441 17.934H132.757V19.734H124.441V17.934ZM139.814 14.622H142.154V24H139.814V14.622ZM135.584 13.812H146.384V15.648H135.584V13.812Z" fill="#152532"/>
</svg>
